<svg xmlns="http://www.w3.org/2000/svg" viewBox="0 0 194.08 194.08"><defs><style>.cls-1{opacity:0.5;}</style></defs><g id="图层_2" data-name="图层 2"><g id="图层_1-2" data-name="图层 1"><path class="cls-1" d="M96.88,0a96.21,96.21,0,0,1,68.65,28.4h.08a97,97,0,0,1,.15,137.12l-.15.15-.61.53a97,97,0,0,1-136.61-.53h-.07a97.33,97.33,0,0,1,0-137.27l.61-.53A96.32,96.32,0,0,1,96.88,0Zm53.43,43.56A75.55,75.55,0,0,0,44.08,43.1l-.46.54A75.45,75.45,0,0,0,149.85,150.82l.46-.46a75.23,75.23,0,0,0,0-106.72v-.08Zm-5.16,65.12H48.94a8.8,8.8,0,0,1-8.81-8.81V94.2a8.81,8.81,0,0,1,8.81-8.81h96.21A8.81,8.81,0,0,1,154,94.2v5.67A8.8,8.8,0,0,1,145.15,108.68ZM108.69,48.93v96.21A8.81,8.81,0,0,1,99.88,154H94.21a8.81,8.81,0,0,1-8.81-8.82V48.93a8.8,8.8,0,0,1,8.81-8.81h5.67A8.8,8.8,0,0,1,108.69,48.93Z"/></g></g></svg>