<svg t="1657589690727" class="icon" viewBox="0 0 1024 1024" version="1.1" xmlns="http://www.w3.org/2000/svg" p-id="4635" width="200" height="200"><path d="M490.666667 938.666667c5.973333 0 11.52 0 17.066666-1.706667A85.76 85.76 0 0 0 576 853.333333h-170.666667a85.333333 85.333333 0 0 0 85.333334 85.333334M768 448c0-130.986667-91.306667-240.64-213.333333-269.653333V149.333333A64 64 0 0 0 490.666667 85.333333 64 64 0 0 0 426.666667 149.333333v29.013334c-122.453333 29.013333-213.333333 138.666667-213.333334 269.653333V682.666667l-85.333333 85.333333v42.666667h725.333333v-42.666667l-85.333333-85.333333m84.053333-256h85.333334c-6.4-136.96-73.813333-257.28-175.786667-334.933334l-61.013333 61.013334C787.626667 213.333333 845.653333 313.6 852.053333 426.666667M280.746667 152.746667L219.733333 91.733333A451.413333 451.413333 0 0 0 42.666667 426.666667h85.333333c7.68-113.066667 65.706667-213.333333 152.746667-273.92z" fill="#42526E" p-id="4636"></path></svg>