<svg t="1658315985739" class="icon" viewBox="0 0 1024 1024" version="1.1" xmlns="http://www.w3.org/2000/svg" p-id="2931" width="200" height="200"><path d="M853.333333 256h-170.666666V213.333333a128 128 0 0 0-128-128h-85.333334a128 128 0 0 0-128 128v42.666667H170.666667a42.666667 42.666667 0 0 0 0 85.333333h42.666666v469.333334a128 128 0 0 0 128 128h341.333334a128 128 0 0 0 128-128V341.333333h42.666666a42.666667 42.666667 0 0 0 0-85.333333zM426.666667 213.333333a42.666667 42.666667 0 0 1 42.666666-42.666666h85.333334a42.666667 42.666667 0 0 1 42.666666 42.666666v42.666667h-170.666666z m298.666666 597.333334a42.666667 42.666667 0 0 1-42.666666 42.666666H341.333333a42.666667 42.666667 0 0 1-42.666666-42.666666V341.333333h426.666666z" p-id="2932" fill="#42526E"></path></svg>