<svg t="1657599565436" class="icon" viewBox="0 0 1024 1024" version="1.1" xmlns="http://www.w3.org/2000/svg" p-id="2108" width="200" height="200"><path d="M682.67008 443.72992H614.4V204.8c0-56.53504-45.83424-102.4-102.4-102.4s-102.4 45.86496-102.4 102.4v238.92992h-68.27008C265.9328 443.72992 204.8 504.86272 204.8 580.25984V921.6h614.4V580.25984c0-75.39712-61.1328-136.52992-136.52992-136.52992z m-409.6 409.6V648.54016h68.25984v204.78976h-68.25984z m136.52992 0V648.54016h68.27008v204.78976H409.6z m136.52992 0V648.54016H614.4v204.78976h-68.27008z m204.8 0h-68.25984V648.54016h68.25984v204.78976zM273.07008 580.25984A68.2496 68.2496 0 0 1 341.32992 512h136.54016V204.8c0-18.86208 15.2576-34.12992 34.12992-34.12992s34.12992 15.26784 34.12992 34.12992v307.2h136.54016a68.2496 68.2496 0 0 1 68.25984 68.25984H273.07008z" p-id="2109" fill="#42526E"></path></svg>