<?xml version="1.0" encoding="utf-8"?>
<!-- Generator: Adobe Illustrator 25.0.0, SVG Export Plug-In . SVG Version: 6.00 Build 0)  -->
<svg version="1.1" id="图层_1" xmlns="http://www.w3.org/2000/svg" xmlns:xlink="http://www.w3.org/1999/xlink" x="0px" y="0px"
	 viewBox="0 0 200 200" style="enable-background:new 0 0 200 200;" xml:space="preserve">
<style type="text/css">
	.st0{fill:#42526E;}
	.st1{fill:#FFFFFF;stroke:#000000;stroke-miterlimit:10;}
</style>
<path class="st0" d="M64.6,150c5.8,0,10.4,4.7,10.4,10.4s-4.7,10.4-10.4,10.4c-5.8,0-10.4-4.7-10.4-10.4S58.8,150,64.6,150z
	 M139.6,150c5.8,0,10.4,4.7,10.4,10.4s-4.7,10.4-10.4,10.4c-5.8,0-10.4-4.7-10.4-10.4S133.8,150,139.6,150L139.6,150z M18.5,31.2
	h10.7c8.5,0,16,5.8,18.1,14l0.2,0.9l2.6,12.2h0l8.4,40.1l6.3,30.7h78.6l12-58.3H61.3l-2.6-12.5h96.8c6.9,0,12.5,5.6,12.5,12.5
	c0,0.8-0.1,1.7-0.3,2.5l-12,58.3c-1.2,5.8-6.3,10-12.2,10H64.9c-5.9,0-11-4.2-12.2-10L40.8,74.4l-0.1,0l-5.4-25.7
	c-0.6-2.7-2.8-4.7-5.5-4.9l-0.6,0H18.5L18.5,31.2l10.7,0L18.5,31.2z"/>
<line class="st1" x1="60.2" y1="58.9" x2="49.6" y2="58.9"/>
</svg>
