<svg xmlns="http://www.w3.org/2000/svg" viewBox="0 0 267.57 216.23"><defs><style>.cls-1{fill:#fff;}.cls-1,.cls-2{stroke:#1f94ea;stroke-miterlimit:10;stroke-width:7px;}.cls-2{fill:none;}</style></defs><g id="图层_2" data-name="图层 2"><g id="图层_1-2" data-name="图层 1"><g id="图层_2-2" data-name="图层 2"><g id="图层_1-2-2" data-name="图层 1-2"><circle class="cls-1" cx="120.76" cy="190.73" r="22"/><circle class="cls-1" cx="219.76" cy="190.73" r="22"/><path class="cls-1" d="M104.26,167.73h-1.54c-.84,0-2.53-4.39-3.74-9.76L84.47,93.48c-1.21-5.36,2.3-9.75,7.8-9.75h164c5.5,0,8.87,4.35,7.49,9.68L247,158.05a13.63,13.63,0,0,1-12.5,9.68h-133c.13,0-.75-4.39-2-9.76L65.93,9.48C64.72,4.12,59.81,2,55,4.64L1.72,34.73"/><path class="cls-2" d="M104.26,167.73h-1.54c-.84,0-2.53-4.39-3.74-9.76L84.47,93.48c-1.21-5.36,2.3-9.75,7.8-9.75h164c5.5,0,8.87,4.35,7.49,9.68L247,158.05a13.63,13.63,0,0,1-12.5,9.68h-133c.13,0-.75-4.39-2-9.76L65.93,9.48C64.72,4.12,59.81,2,55,4.64L1.72,34.73"/></g></g></g></g></svg>