<svg xmlns="http://www.w3.org/2000/svg" viewBox="0 0 263.05 210.25"><defs><style>.cls-1,.cls-2{fill:#fff;}.cls-1,.cls-3{stroke:#000;stroke-miterlimit:10;}.cls-3{fill:none;}</style></defs><g id="图层_2" data-name="图层 2"><g id="图层_1-2" data-name="图层 1"><circle class="cls-1" cx="119.29" cy="187.75" r="22"/><circle class="cls-1" cx="218.29" cy="187.75" r="22"/><path class="cls-2" d="M102.79,164.75h-1.54c-.84,0-2.53-4.39-3.74-9.76L83,90.5c-1.21-5.36,2.3-9.75,7.8-9.75h164c5.5,0,8.87,4.35,7.49,9.68L245.5,155.07a13.63,13.63,0,0,1-12.5,9.68H100c.13,0-.75-4.39-2-9.76L64.46,6.5C63.25,1.14,58.34-1,53.55,1.66L.25,31.75"/><path class="cls-3" d="M102.79,164.75h-1.54c-.84,0-2.53-4.39-3.74-9.76L83,90.5c-1.21-5.36,2.3-9.75,7.8-9.75h164c5.5,0,8.87,4.35,7.49,9.68L245.5,155.07a13.63,13.63,0,0,1-12.5,9.68H100c.13,0-.75-4.39-2-9.76L64.46,6.5C63.25,1.14,58.34-1,53.55,1.66L.25,31.75"/></g></g></svg>