<svg t="1657942281233" class="icon" viewBox="0 0 1024 1024" version="1.1" xmlns="http://www.w3.org/2000/svg" p-id="3558" width="200" height="200"><path d="M426.667 128c38.229 0 72.533 16.768 96 43.328a127.701 127.701 0 0 1 90.005-43.2l5.995-0.128h234.666a128 128 0 0 1 127.915 123.2l0.085 4.8v512a128 128 0 0 1-123.2 127.915l-4.8 0.085h-240.17a117.099 117.099 0 0 1-90.496 42.667A117.099 117.099 0 0 1 432.17 896H192A128 128 0 0 1 64 768V256a128 128 0 0 1 128-128h234.667zM470.4 832a53.333 53.333 0 0 0 104.533 0h278.4l3.755-0.107a64 64 0 0 0 60.139-60.138l0.106-3.755V256l-0.106-3.755A64 64 0 0 0 853.333 192H618.667l-3.755 0.107a64 64 0 0 0-60.139 60.138l-0.106 3.755v460.8a8.533 8.533 0 0 1-8.534 8.533H499.2a8.533 8.533 0 0 1-8.533-8.533V256a64 64 0 0 0-56.534-63.573l-3.712-0.32-3.754-0.107H192a64 64 0 0 0-63.893 60.245L128 256v512a64 64 0 0 0 60.245 63.893L192 832h278.4z" p-id="3559" fill="#42526E"></path><path d="M200.533 405.333h217.6c4.694 0 8.534 3.84 8.534 8.534V460.8a8.533 8.533 0 0 1-8.534 8.533h-217.6A8.533 8.533 0 0 1 192 460.8v-46.933c0-4.694 3.84-8.534 8.533-8.534z m0 128h217.6c4.694 0 8.534 3.84 8.534 8.534V588.8a8.533 8.533 0 0 1-8.534 8.533h-217.6A8.533 8.533 0 0 1 192 588.8v-46.933c0-4.694 3.84-8.534 8.533-8.534z m426.667-128h217.6c4.693 0 8.533 3.84 8.533 8.534V460.8a8.533 8.533 0 0 1-8.533 8.533H627.2a8.533 8.533 0 0 1-8.533-8.533v-46.933c0-4.694 3.84-8.534 8.533-8.534z m0 128h217.6c4.693 0 8.533 3.84 8.533 8.534V588.8a8.533 8.533 0 0 1-8.533 8.533H627.2a8.533 8.533 0 0 1-8.533-8.533v-46.933c0-4.694 3.84-8.534 8.533-8.534z" p-id="3560" fill="#42526E"></path></svg>