<svg t="1657511078776" class="icon" viewBox="0 0 1024 1024" version="1.1" xmlns="http://www.w3.org/2000/svg" p-id="25274" width="200" height="200"><path d="M934.4 981.333333H89.6A46.08 46.08 0 0 1 42.666667 934.485333V156.672a46.08 46.08 0 0 1 46.933333-46.848h367.658667c26.581333 0 46.933333 20.309333 46.933333 46.848a46.08 46.08 0 0 1-46.933333 46.848H136.533333v684.117333h750.933334v-371.712a46.08 46.08 0 0 1 46.933333-46.890666c26.581333 0 46.933333 20.309333 46.933333 46.848v418.56c0 26.581333-21.888 46.890667-46.933333 46.890666z" p-id="25275" fill="#42526E"></path><path d="M330.538667 739.242667c-12.544 0-25.045333-4.693333-32.853334-14.08-9.386667-9.344-14.08-20.266667-14.08-32.768v-187.434667c0-12.501333 4.693333-24.96 14.08-32.768l416.128-415.488c7.808-9.386667 20.352-14.037333 32.853334-14.037333 12.501333 0 25.045333 4.693333 32.853333 14.08l187.733333 187.392c18.773333 18.773333 18.773333 48.426667 0 65.621333l-416.128 415.445333c-9.386667 9.386667-20.352 14.08-32.853333 14.08h-187.733333z m46.933333-215.552v120.32h120.448l369.194667-367.061334L746.666667 155.136l-369.194667 368.597333z" p-id="25276" fill="#42526E"></path></svg>