<svg t="1657596416338" class="icon" viewBox="0 0 1024 1024" version="1.1" xmlns="http://www.w3.org/2000/svg" p-id="5742" width="200" height="200"><path d="M896 685.408V192a32 32 0 0 0-32-32H160c-17.632 0-32 14.336-32 32v668.064l145.984-126.944a64.192 64.192 0 0 1 41.984-15.712H864a32 32 0 0 0 32-32zM864 96c52.928 0 96 43.072 96 96v493.408c0 52.928-43.072 96-96 96H315.968l-145.952 126.944a63.552 63.552 0 0 1-46.464 15.552A64.096 64.096 0 0 1 64 860.064V192c0-52.928 43.072-96 96-96h704z m-204.576 252.576a32 32 0 1 1 0 64H333.696a32 32 0 0 1 0-64h325.76z m-131.776 148.576a32 32 0 1 1 0 64h-193.92a32 32 0 0 1 0-64h193.92z" p-id="5743" fill="#42526E"></path></svg>