<svg t="1657441251687" class="icon" viewBox="0 0 1066 1024" version="1.1" xmlns="http://www.w3.org/2000/svg" p-id="11786" width="200" height="200"><path d="M533.333333 853.333333h-256a42.666667 42.666667 0 0 1-42.666666-42.666666V213.333333a42.666667 42.666667 0 0 1 42.666666-42.666666h213.333334v128a128 128 0 0 0 128 128h128v213.333333a42.666667 42.666667 0 1 0 85.333333 0V384v-2.56a55.893333 55.893333 0 0 0-2.56-11.52v-3.84a45.653333 45.653333 0 0 0-8.106667-11.946667l-256-256a45.653333 45.653333 0 0 0-11.946666-8.106666 12.373333 12.373333 0 0 0-4.266667 0 46.933333 46.933333 0 0 0-13.226667-4.693334H277.333333a128 128 0 0 0-128 128v597.333334a128 128 0 0 0 128 128h256a42.666667 42.666667 0 1 0 0-85.333334z m42.666667-622.506666L686.506667 341.333333H618.666667a42.666667 42.666667 0 0 1-42.666667-42.666666V230.826667zM362.666667 597.333333h256a42.666667 42.666667 0 1 0 0-85.333333h-256a42.666667 42.666667 0 0 0 0 85.333333z m170.666666 85.333334h-170.666666a42.666667 42.666667 0 0 0 0 85.333333h170.666666a42.666667 42.666667 0 1 0 0-85.333333z m-170.666666-256h42.666666a42.666667 42.666667 0 1 0 0-85.333334h-42.666666a42.666667 42.666667 0 0 0 0 85.333334z m584.96 268.373333a42.666667 42.666667 0 0 0-60.586667 0l-140.373333 140.8-55.04-55.466667a42.837333 42.837333 0 0 0-60.586667 60.586667l85.333333 85.333333a42.666667 42.666667 0 0 0 60.586667 0l170.666667-170.666666a42.666667 42.666667 0 0 0 0-60.586667z" fill="#42526E" p-id="11787"></path></svg>