<svg t="1657510775585" class="icon" viewBox="0 0 1024 1024" version="1.1" xmlns="http://www.w3.org/2000/svg" p-id="22165" width="200" height="200"><path d="M256.170667 720.597333c21.12 0 38.528 16.384 39.509333 37.248a39.253333 39.253333 0 0 1-35.712 40.789334l-3.84 0.170666H252.16a13.226667 13.226667 0 0 0-11.221333 6.186667l-1.066667 2.005333-31.701333 78.208a12.928 12.928 0 0 0 0.725333 11.178667 13.226667 13.226667 0 0 0 9.173333 6.528l2.389334 0.213333h583.210666a13.226667 13.226667 0 0 0 10.24-4.821333 12.885333 12.885333 0 0 0 2.688-10.837333l-0.682666-2.261334-31.658667-78.208a13.141333 13.141333 0 0 0-9.984-7.978666l-2.304-0.213334h-4.053333a39.381333 39.381333 0 0 1-39.509334-37.205333 39.253333 39.253333 0 0 1 35.712-40.832l3.797334-0.170667h4.053333c35.84 0 68.437333 20.48 83.669333 52.48l2.133334 4.864 31.658666 78.250667a90.282667 90.282667 0 0 1-7.338666 82.133333 92.586667 92.586667 0 0 1-71.424 42.752l-6.997334 0.256H220.416c-29.44 0-57.088-13.824-74.496-37.248a90.368 90.368 0 0 1-13.653333-81.365333l2.346666-6.528 31.701334-78.208a92.330667 92.330667 0 0 1 80.426666-57.216l5.376-0.170667h4.053334zM764.032 145.749333C624.853333 8.32 399.189333 8.32 260.010667 145.749333a348.970667 348.970667 0 0 0 0 497.834667l149.333333 147.498667a146.474667 146.474667 0 0 0 205.354667 0l149.333333-147.498667a348.970667 348.970667 0 0 0 0-497.834667z m-56.021333 55.296a271.445333 271.445333 0 0 1 0 387.242667l-149.333334 147.456a66.389333 66.389333 0 0 1-93.312 0l-149.333333-147.456a271.445333 271.445333 0 0 1 0-387.242667c108.202667-106.88 283.733333-106.88 391.978667 0zM512 277.333333c-65.578667 0-118.784 52.522667-118.784 117.333334S446.421333 512 512 512c65.621333 0 118.826667-52.522667 118.826667-117.333333S577.621333 277.333333 512 277.333333z m0 78.208c21.888 0 39.637333 17.493333 39.637333 39.125334a39.338667 39.338667 0 0 1-39.637333 39.125333 39.338667 39.338667 0 0 1-39.594667-39.125333c0-21.589333 17.749333-39.125333 39.594667-39.125334z" fill="#42526E" p-id="22166"></path></svg>