<svg xmlns="http://www.w3.org/2000/svg" viewBox="0 0 215 131.5"><defs><style>.cls-1{fill:#fff;}.cls-2{fill:none;stroke:#000;stroke-miterlimit:10;stroke-width:7px;}</style></defs><g id="图层_2" data-name="图层 2"><g id="图层_1-2" data-name="图层 1"><rect class="cls-1" x="3.5" y="7" width="208" height="121" rx="6.5"/><path d="M205,10.5a3,3,0,0,1,3,3v108a3,3,0,0,1-3,3H10a3,3,0,0,1-3-3V13.5a3,3,0,0,1,3-3H205m0-7H10a10,10,0,0,0-10,10v108a10,10,0,0,0,10,10H205a10,10,0,0,0,10-10V13.5a10,10,0,0,0-10-10Z"/><path class="cls-1" d="M10,3.5c-5.5,0-6.13,2.3-1.41,5.12L98.91,62.38c4.72,2.82,12.46,2.82,17.18,0L206.41,8.62C211.13,5.8,210.5,3.5,205,3.5Z"/><path class="cls-2" d="M10,3.5c-5.5,0-6.13,2.3-1.41,5.12L98.91,62.38c4.72,2.82,12.46,2.82,17.18,0L206.41,8.62C211.13,5.8,210.5,3.5,205,3.5Z"/></g></g></svg>