<svg xmlns="http://www.w3.org/2000/svg" viewBox="0 0 153.09 241"><defs><style>.cls-1,.cls-2{fill:#fff;}.cls-1,.cls-3{stroke:#000;stroke-miterlimit:10;}.cls-3{fill:none;}</style></defs><g id="图层_2" data-name="图层 2"><g id="图层_1-2" data-name="图层 1"><circle class="cls-1" cx="76.52" cy="50.5" r="50"/><path class="cls-2" d="M152.21,230.9c1.54,5.28-1.69,9.6-7.19,9.6H8c-5.5,0-8.7-4.31-7.11-9.57L35,118.07a14.34,14.34,0,0,1,12.89-9.57h58.5a14.19,14.19,0,0,1,12.81,9.6Z"/><path class="cls-3" d="M152.21,230.9c1.54,5.28-1.69,9.6-7.19,9.6H8c-5.5,0-8.7-4.31-7.11-9.57L35,118.07a14.34,14.34,0,0,1,12.89-9.57h58.5a14.19,14.19,0,0,1,12.81,9.6Z"/></g></g></svg>