<svg t="1657623185583" class="icon" viewBox="0 0 1024 1024" version="1.1" xmlns="http://www.w3.org/2000/svg" p-id="9680" width="200" height="200"><path d="M845.01888 732.43136c-18.20544-43.04128-44.2624-81.69088-77.44896-114.87872-33.18656-33.18656-71.83744-59.24224-114.87872-77.44768-12.15104-5.14048-24.512-9.56288-37.04576-13.31456 65.31712-36.48384 109.58848-106.3104 109.58848-186.2912 0-117.57696-95.65568-213.23264-213.23392-213.23264-117.57568 0-213.23264 95.65568-213.23264 213.23264 0 79.98208 44.27136 149.80736 109.58976 186.2912-12.53504 3.75296-24.89728 8.17664-37.04576 13.31456-43.04128 18.20544-81.69216 44.26112-114.88 77.44768-33.18528 33.18784-59.24352 71.83744-77.44768 114.87872-18.85312 44.57216-28.41216 91.90784-28.41216 140.6912 0 11.60832 9.41056 21.01888 21.01888 21.01888 11.6096 0 21.01888-9.41056 21.01888-21.01888 0-176.11264 143.27808-319.38944 319.38944-319.38944 176.11264 0 319.39072 143.27808 319.39072 319.38944 0 11.60832 9.40928 21.01888 21.01888 21.01888 11.60832 0 21.02016-9.41056 21.02016-21.01888C873.42976 824.3392 863.86944 777.00352 845.01888 732.43136zM340.8064 340.4992c0-94.39744 76.79744-171.19488 171.19488-171.19488 94.39872 0 171.19616 76.79744 171.19616 171.19488 0 94.39744-76.79744 171.19488-171.19616 171.19488C417.60256 511.6928 340.8064 434.89536 340.8064 340.4992z" p-id="9681" fill="#42526E"></path></svg>