<svg t="1658021540028" class="icon" viewBox="0 0 1024 1024" version="1.1" xmlns="http://www.w3.org/2000/svg" p-id="2442" width="200" height="200"><path d="M819.2 138.6496H204.8c-36.5056 0-66.1504 29.6448-66.1504 66.1504v614.4c0 36.5056 29.6448 66.1504 66.1504 66.1504h614.4c36.5056 0 66.1504-29.6448 66.1504-66.1504V204.8c0-36.5056-29.6448-66.1504-66.1504-66.1504zM204.8 202.6496h614.4c1.1776 0 2.1504 0.9728 2.1504 2.1504v614.4a2.1504 2.1504 0 0 1-2.1504 2.1504H204.8A2.1504 2.1504 0 0 1 202.6496 819.2V204.8c0-1.1776 0.9728-2.1504 2.1504-2.1504z" fill="#42526E" p-id="2443"></path><path d="M853.3504 480v64H170.6496v-64z" fill="#42526E" p-id="2444"></path><path d="M256 298.6496h213.3504V384H256zM554.6496 298.6496H768V384h-213.3504zM256 640h512v85.3504H256z" fill="#42526E" p-id="2445"></path><path d="M0 0h1024v1024H0z" fill="#42526E" fill-opacity="0" p-id="2446"></path></svg>