<svg t="1657162860391" class="icon" viewBox="0 0 1024 1024" version="1.1" xmlns="http://www.w3.org/2000/svg" p-id="7272" width="200" height="200"><path d="M368.112485 130.544485c258.606545-87.443394 519.695515 77.948121 568.071757 300.559515 15.049697 69.197576 13.032727 124.803879-2.978909 168.494545a163.126303 163.126303 0 0 1-81.082181 91.477334c-67.242667 34.102303-151.645091 24.513939-199.307637 7.292121-31.588848-11.388121-56.195879-12.908606-70.562909-8.688485-6.454303 1.923879-9.836606 4.654545-11.791515 7.323152-1.985939 2.792727-4.468364 8.098909-4.468364 18.49406 0 10.705455 2.482424 21.628121 6.516364 34.071273a522.860606 522.860606 0 0 0 6.702545 19.238788c2.358303 6.547394 4.902788 13.777455 6.981819 21.131636 4.158061 14.584242 7.447273 32.519758 3.10303 51.758546-4.530424 20.014545-16.35297 37.236364-34.75394 52.192969-13.249939 10.736485-30.006303 15.825455-45.955878 18.028606-16.384 2.296242-34.753939 2.01697-53.899637-0.186181-38.291394-4.437333-82.97503-16.973576-127.379394-36.677819-87.877818-38.974061-181.868606-109.288727-220.718545-210.168242-83.657697-217.11903 16.632242-451.55297 261.523394-534.341818z m507.438545 313.716363C835.118545 258.265212 611.917576 113.664 387.971879 189.377939c-211.595636 71.524848-294.384485 269.187879-223.480243 453.228606 30.564848 79.344485 107.768242 140.194909 187.981576 175.755637 39.656727 17.594182 78.258424 28.175515 109.350788 31.744 15.546182 1.799758 28.423758 1.768727 38.167273 0.403394 10.146909-1.427394 14.398061-3.940848 15.42206-4.778667 10.115879-8.192 12.536242-14.087758 13.343031-17.687273 1.024-4.437333 0.744727-10.550303-2.234182-21.100606a277.038545 277.038545 0 0 0-6.826667-20.324848c-1.985939-5.492364-4.189091-11.636364-6.20606-17.873455-4.902788-15.049697-9.557333-33.078303-9.557334-53.216969 0-20.51103 5.026909-39.470545 16.384-55.047758 11.419152-15.639273 27.306667-25.258667 44.373334-30.285576 32.73697-9.650424 72.300606-3.475394 109.164606 9.836606 37.91903 13.653333 103.330909 19.48703 150.186666-4.282182a101.158788 101.158788 0 0 0 50.889697-57.530181c10.705455-29.168485 14.087758-71.959273 0.620606-133.895758z" fill="#303133" p-id="7273"></path><path d="M418.909091 308.441212a46.545455 46.545455 0 1 1-93.090909 0 46.545455 46.545455 0 0 1 93.090909 0zM325.818182 525.653333a46.545455 46.545455 0 1 1-93.090909 0 46.545455 46.545455 0 0 1 93.090909 0zM698.181818 339.471515a46.545455 46.545455 0 1 1-93.090909 0 46.545455 46.545455 0 0 1 93.090909 0z" fill="#303133" p-id="7274"></path></svg>