<svg t="1657716654271" class="icon" viewBox="0 0 1024 1024" version="1.1" xmlns="http://www.w3.org/2000/svg" p-id="4293" width="200" height="200"><path d="M681.984 768l0-598.016-384 0 0 598.016 384 0zM489.984 937.984q25.984 0 45.013333-18.986667t18.986667-45.013333-18.986667-45.013333-45.013333-18.986667-45.013333 18.986667-18.986667 45.013333 18.986667 45.013333 45.013333 18.986667zM662.016 41.984q43.989333 0 75.008 32t31.018667 75.989333l0 724.010667q0 43.989333-31.018667 75.989333t-75.008 32l-342.016 0q-43.989333 0-75.008-32t-31.018667-75.989333l0-724.010667q0-43.989333 31.018667-75.989333t75.008-32l342.016 0z" p-id="4294" fill="#42526E"></path></svg>