<svg t="1657944689208" class="icon" viewBox="0 0 1024 1024" version="1.1" xmlns="http://www.w3.org/2000/svg" p-id="6987" width="200" height="200"><path d="M940.777065 886.978277l0-71.704089 17.929348 0 0 71.704089L940.777065 886.978277 940.777065 886.978277 940.777065 886.978277 940.777065 886.978277zM940.777065 779.421632l0-71.709205 17.929348 0 0 71.709205L940.777065 779.421632 940.777065 779.421632 940.777065 779.421632 940.777065 779.421632zM940.777065 600.160899l17.929348 0 0 71.703065-17.929348 0L940.777065 600.160899 940.777065 600.160899 940.777065 600.160899 940.777065 600.160899zM940.777065 492.598114l17.929348 0 0 71.705112-17.929348 0L940.777065 492.598114 940.777065 492.598114 940.777065 492.598114 940.777065 492.598114zM940.777065 385.042493 940.777065 385.042493l17.929348 0 0 71.698972-17.929348 0L940.777065 385.042493 940.777065 385.042493 940.777065 385.042493 940.777065 385.042493zM940.777065 277.485849l17.929348 0L958.706413 349.185844l-17.929348 0L940.777065 277.485849 940.777065 277.485849 940.777065 277.485849 940.777065 277.485849zM940.777065 169.924087 940.777065 169.924087l17.929348 0 0 71.705112-17.929348 0L940.777065 169.924087 940.777065 169.924087 940.777065 169.924087 940.777065 169.924087zM940.777065 62.367443l17.929348 0 0 71.699995-17.929348 0L940.777065 62.367443 940.777065 62.367443 940.777065 62.367443 940.777065 62.367443zM851.138512 62.367443l71.709205 0 0 17.929348L851.138512 80.296791 851.138512 62.367443 851.138512 62.367443 851.138512 62.367443 851.138512 62.367443zM743.586984 62.367443l71.704089 0 0 17.929348-71.704089 0L743.586984 62.367443 743.586984 62.367443 743.586984 62.367443 743.586984 62.367443zM636.030339 62.367443l71.698972 0 0 17.929348-71.698972 0L636.030339 62.367443 636.030339 62.367443 636.030339 62.367443 636.030339 62.367443zM528.473695 62.367443l71.698972 0 0 17.929348-71.698972 0L528.473695 62.367443 528.473695 62.367443 528.473695 62.367443 528.473695 62.367443zM420.911934 62.367443l71.710228 0 0 17.929348-71.710228 0L420.911934 62.367443 420.911934 62.367443 420.911934 62.367443 420.911934 62.367443zM313.355289 62.367443l71.710228 0 0 17.929348-71.710228 0L313.355289 62.367443 313.355289 62.367443 313.355289 62.367443 313.355289 62.367443zM205.793528 62.367443l71.710228 0 0 17.929348-71.710228 0L205.793528 62.367443 205.793528 62.367443 205.793528 62.367443 205.793528 62.367443zM98.236883 62.367443l71.705112 0 0 17.929348-71.705112 0L98.236883 62.367443 98.236883 62.367443 98.236883 62.367443 98.236883 62.367443zM98.236883 958.682365 62.385351 958.682365 62.385351 922.830833l17.929348 0L80.314699 940.759157l17.922185 0L98.236883 958.682365 98.236883 958.682365 98.236883 958.682365 98.236883 958.682365zM62.385351 815.273165l17.929348 0 0 71.704089L62.385351 886.977253 62.385351 815.273165 62.385351 815.273165 62.385351 815.273165 62.385351 815.273165zM62.385351 707.712427l17.929348 0 0 71.709205L62.385351 779.421632 62.385351 707.712427 62.385351 707.712427 62.385351 707.712427 62.385351 707.712427zM62.385351 600.160899l17.929348 0 0 71.703065L62.385351 671.863964 62.385351 600.160899 62.385351 600.160899 62.385351 600.160899 62.385351 600.160899zM62.385351 492.598114l17.929348 0 0 71.705112L62.385351 564.303226 62.385351 492.598114 62.385351 492.598114 62.385351 492.598114 62.385351 492.598114zM62.385351 385.042493l17.929348 0 0 71.698972L62.385351 456.741465 62.385351 385.042493 62.385351 385.042493 62.385351 385.042493 62.385351 385.042493zM62.385351 277.485849l17.929348 0L80.314699 349.185844 62.385351 349.185844 62.385351 277.485849 62.385351 277.485849 62.385351 277.485849 62.385351 277.485849zM62.385351 169.924087 62.385351 169.924087l17.929348 0 0 71.705112L62.385351 241.629199 62.385351 169.924087 62.385351 169.924087 62.385351 169.924087 62.385351 169.924087zM62.385351 62.367443l17.929348 0 0 71.699995L62.385351 134.067438 62.385351 62.367443 62.385351 62.367443 62.385351 62.367443 62.385351 62.367443zM205.793528 958.682365l-71.697949 0L134.095579 940.759157l71.697949 0L205.793528 958.682365 205.793528 958.682365 205.793528 958.682365 205.793528 958.682365zM313.355289 958.682365 241.65734 958.682365 241.65734 940.759157l71.696925 0L313.354266 958.682365 313.355289 958.682365 313.355289 958.682365 313.355289 958.682365zM483.659023 331.261613l53.774741 0 0 152.378479 152.378479 0 0 53.775764L537.432741 537.415856l0 152.37234-53.774741 0L483.658 537.420973 331.27952 537.420973l0-53.780881L483.659023 483.640092 483.659023 331.261613 483.659023 331.261613 483.659023 331.261613 483.659023 331.261613zM420.911934 958.682365l-71.703065 0L349.208868 940.759157l71.703065 0L420.911934 958.682365 420.911934 958.682365 420.911934 958.682365 420.911934 958.682365zM528.473695 958.682365l-71.709205 0L456.76449 940.759157l71.709205 0L528.473695 958.682365 528.473695 958.682365 528.473695 958.682365 528.473695 958.682365zM636.030339 958.682365 564.326251 958.682365 564.326251 940.759157l71.704089 0L636.030339 958.682365 636.030339 958.682365 636.030339 958.682365 636.030339 958.682365zM743.586984 958.682365l-71.704089 0L671.882895 940.759157l71.704089 0L743.586984 958.682365 743.586984 958.682365 743.586984 958.682365 743.586984 958.682365zM851.138512 958.682365l-71.698972 0L779.43954 940.759157 851.138512 940.759157 851.138512 958.682365 851.138512 958.682365 851.138512 958.682365 851.138512 958.682365zM940.777065 922.830833l17.929348 0 0 35.851533-71.704089 0L887.002324 940.759157l53.775764 0L940.778088 922.830833 940.777065 922.830833 940.777065 922.830833 940.777065 922.830833zM940.777065 922.830833" p-id="6988" fill="#42526E"></path></svg>