<svg t="1657798162459" class="icon" viewBox="0 0 1024 1024" version="1.1" xmlns="http://www.w3.org/2000/svg" p-id="5429" width="200" height="200"><path d="M427.4 537.5c-40.3 0-73.1 32.8-73.1 73.1 0 29.5 17.5 55.8 44.6 67.3v50.8c0 15.7 12.8 28.5 28.5 28.5s28.5-12.8 28.5-28.5V678c27.1-11.5 44.6-37.9 44.6-67.3 0-40.4-32.8-73.2-73.1-73.2z" p-id="5430" fill="#42526E"></path><path d="M683.3 345.8h-41.6l-0.2-77.1-0.1-1c-6.5-113.2-100.5-202-214-202s-207.5 88.7-214 202l-0.1 1-0.2 77.1H172c-59.6 0-108 48.4-108 108v397.3c0 59.6 48.4 108 108 108h511.3c59.6 0 108-48.4 108-108V453.8c0-59.6-48.5-108-108-108z m-397.9-74.9c4.8-74.7 67-133.1 142.1-133.1s137.3 58.4 142.1 133.1l0.2 73.3H285.2l0.2-73.3z m433.9 580.2c0 19.9-16.1 36-36 36H172c-19.9 0-36-16.1-36-36V453.8c0-19.9 16.1-36 36-36h511.3c19.9 0 36 16.1 36 36v397.3z" p-id="5431" fill="#42526E"></path><path d="M851.2 302.6h-7.4v-13.2c0-76.6-62.3-138.9-138.9-138.9-19.9 0-36 16.1-36 36s16.1 36 36 36c36.9 0 66.9 30 66.9 66.9l-0.1 49.2c0 9.6 3.8 18.7 10.5 25.5s15.9 10.6 25.5 10.6h43.5c19.9 0 36 16.1 36 36v349.2c0 12.1-2.8 22.7-7.6 29-2.7 3.5-6.7 7-16.4 7-19.9 0-36 16.1-36 36s16.1 36 36 36c56.5 0 96-44.4 96-108V410.6c0-59.6-48.5-108-108-108z" p-id="5432" fill="#42526E"></path></svg>