<svg t="1657622878431" class="icon" viewBox="0 0 1024 1024" version="1.1" xmlns="http://www.w3.org/2000/svg" p-id="5230" width="200" height="200"><path d="M772.565333 938.666667c-7.850667 0-15.701333-1.578667-21.973333-4.693334L512 808.661333 273.408 933.973333c-15.701333 7.808-34.56 6.272-50.218667-3.114666-14.122667-11.008-21.973333-28.202667-18.858666-45.44l45.525333-266.282667-193.066667-187.989333c-12.544-12.544-17.28-31.317333-12.544-48.554667 6.272-17.237333 20.394667-29.781333 37.674667-31.317333l266.837333-39.168L468.053333 70.826667c7.850667-15.658667 23.552-26.624 42.368-26.624 18.858667 0 34.56 9.386667 42.410667 26.624l119.296 241.237333 266.837333 39.168c17.237333 3.114667 32.938667 15.658667 37.674667 31.317333a43.946667 43.946667 0 0 1-12.586667 48.554667L770.986667 619.093333l45.525333 266.325334a46.08 46.08 0 0 1-18.816 45.44c-4.693333 4.693333-14.122667 7.808-25.130667 7.808zM512 706.858667c7.850667 0 15.701333 1.536 21.973333 4.693333l175.786667 92.416-32.938667-195.84c-3.157333-15.658667 3.157333-31.317333 14.122667-42.24l142.848-139.434667-197.802667-28.202666c-15.658667-1.578667-28.245333-12.544-36.096-25.045334L512 196.138667 424.106667 374.784c-6.272 14.08-20.394667 23.509333-36.096 25.088l-197.802667 28.16L333.056 567.466667c11.008 10.965333 15.701333 26.624 14.122667 42.282666l-32.938667 195.84 175.786667-92.458666a36.096 36.096 0 0 1 21.973333-6.229334z" p-id="5231" fill="#42526E"></path></svg>