<svg xmlns="http://www.w3.org/2000/svg" viewBox="0 0 95.11 90.45"><defs><style>.cls-1{fill:#fff;}</style></defs><g id="图层_2" data-name="图层 2"><g id="图层_1-2" data-name="图层 1"><polygon class="cls-1" points="47.55 74.44 18.83 89.54 24.31 57.55 1.07 34.9 33.19 30.23 47.55 1.13 61.92 30.23 94.03 34.9 70.79 57.55 76.28 89.54 47.55 74.44"/><path d="M47.55,2.26l13.8,28,.23.47.52.07L93,35.25,70.63,57l-.38.37.09.51,5.27,30.73L48,74.11l-.47-.24-.46.24L19.49,88.62l5.27-30.73.09-.51L24.47,57,2.15,35.25,33,30.76l.52-.07.23-.47,13.8-28m0-2.26L32.86,29.77,0,34.55,23.78,57.73,18.16,90.45,47.55,75,76.94,90.45,71.33,57.73,95.11,34.55,62.25,29.77,47.55,0Z"/></g></g></svg>