<svg t="1657163309108" class="icon" viewBox="0 0 1024 1024" version="1.1" xmlns="http://www.w3.org/2000/svg" p-id="9949" width="200" height="200"><path d="M640 298.666667v170.666666h42.666667v85.333334h-128V213.333333h85.333333l-128-170.666666-128 170.666666h85.333333v341.333334H341.333333v-89.6c29.866667-12.8 51.2-46.933333 51.2-81.066667 0-51.2-42.666667-93.866667-93.866666-93.866667-51.2 0-93.866667 42.666667-93.866667 93.866667 0 34.133333 21.333333 68.266667 51.2 81.066667V554.666667c0 46.933333 38.4 85.333333 85.333333 85.333333h128v132.266667c-29.866667 17.066667-51.2 46.933333-51.2 81.066666 0 51.2 42.666667 93.866667 93.866667 93.866667 51.2 0 93.866667-42.666667 93.866667-93.866667 0-38.4-21.333333-68.266667-51.2-81.066666V640h128c46.933333 0 85.333333-38.4 85.333333-85.333333v-85.333334h42.666667V298.666667h-170.666667z" p-id="9950"></path></svg>